<svg width="160" height="232" viewBox="0 0 160 232" fill="none" xmlns="http://www.w3.org/2000/svg">
<g clip-path="url(#clip0_5_278)">
<path d="M159.972 81.0875C160.037 79.0696 159.99 77.0498 159.832 75.037C158.797 61.5457 155.446 48.278 148.304 36.6591C138.636 20.9601 122.945 9.96301 105.477 4.55531C101.822 3.34292 98.0607 2.47739 94.2428 1.97023C84.2183 0.852363 75.0962 -0.824443 64.8618 0.482068C42.8262 3.31168 24.0714 15.7131 11.9552 34.2348C-0.384751 53.0988 -2.28751 70.8241 2.23854 92.2243C4.74292 104.102 8.72333 115.602 13.3893 126.773C16.4743 134.165 19.8951 141.446 23.5397 148.551C25.4145 152.212 33.1515 171.698 36.8311 172.418L59.951 176.938L83.036 181.465C104.722 165.151 125.82 146.937 141.973 124.999C151.731 111.696 159.496 97.4224 159.972 81.0875Z" fill="#4C867C"/>
<path d="M94.2427 1.97025C94.2427 1.97025 36.7331 13.0651 31.2837 61.5737C25.8342 110.082 46.9885 174.36 46.9885 174.36L54.8234 175.897C54.8234 175.897 58.2581 71.3201 68.4225 48.5226C68.4225 48.5226 81.476 5.75004 94.2427 1.97025Z" fill="white"/>
<path d="M94.2427 1.97025C94.2427 1.97025 143.302 33.9204 130.017 80.9198C116.733 127.919 72.8506 179.432 72.8506 179.432L65.0157 177.902C65.0157 177.902 101.357 79.767 100.553 54.8245C100.553 54.8106 104.631 10.2844 94.2427 1.97025Z" fill="white"/>
<path d="M35.1172 188.11L36.3973 174.339" stroke="#A87244" stroke-width="3.56" stroke-miterlimit="10"/>
<path d="M77.9293 196.487L81.9447 183.254" stroke="#A87244" stroke-width="3.56" stroke-miterlimit="10"/>
<g style="mix-blend-mode:screen" opacity="0.63">
<path d="M68.5554 56.9136C49.6677 67.708 28.6814 66.5133 21.6299 54.2447C14.5785 41.976 24.2252 23.2866 43.12 12.4922C62.0147 1.69777 83.029 2.89948 90.0525 15.1681C97.0759 27.4367 87.4432 46.1122 68.5554 56.9136Z" fill="#FFF9F8"/>
<path d="M22.9241 70.3769C21.7349 74.7646 17.4467 77.4265 13.3473 76.3156C9.24799 75.2047 6.89752 70.7263 8.08674 66.3526C9.27597 61.9789 13.5712 59.31 17.6705 60.4209C21.7698 61.5318 24.1203 65.9893 22.9241 70.3769Z" fill="#FFF9F8"/>
</g>
<path d="M75.1102 220.926L80.07 195.627L34.1378 186.649L28.9472 213.094C28.7188 214.197 28.7254 215.335 28.9664 216.436C29.2075 217.536 29.6776 218.573 30.3463 219.48C34.3127 225.069 44.9108 227.864 49.9335 228.877C51.4655 229.191 52.4799 229.345 52.6268 229.366C60.5526 230.917 66.6177 230.232 70.717 227.333C72.9488 225.838 74.5212 223.545 75.1102 220.926Z" fill="#7D5533"/>
<path d="M82.5463 185.259L34.2777 175.366C33.9141 175.294 33.5684 175.151 33.2607 174.945C32.9529 174.739 32.6892 174.474 32.4848 174.165C32.2805 173.856 32.1396 173.51 32.0703 173.147C32.001 172.783 32.0047 172.409 32.0811 172.047L32.34 170.804C32.4108 170.438 32.5538 170.091 32.7608 169.782C32.9677 169.472 33.2344 169.208 33.5452 169.003C33.856 168.798 34.2046 168.657 34.5706 168.588C34.9367 168.519 35.3127 168.524 35.6768 168.603L83.9454 178.51C84.3084 178.582 84.6533 178.726 84.9603 178.932C85.2673 179.139 85.5302 179.404 85.7339 179.713C85.9375 180.021 86.0778 180.367 86.1467 180.731C86.2155 181.094 86.2116 181.467 86.135 181.829L85.8832 183.072C85.8108 183.436 85.6666 183.782 85.4589 184.09C85.2513 184.397 84.9844 184.661 84.6738 184.864C84.3631 185.068 84.0151 185.208 83.6498 185.275C83.2845 185.343 82.9094 185.338 82.5463 185.259Z" fill="#007366"/>
<path d="M72.0252 195.886L64.617 231.895" stroke="#A87244" stroke-width="1.44" stroke-miterlimit="10"/>
<path d="M61.9307 193.818L54.5226 229.827" stroke="#A87244" stroke-width="1.44" stroke-miterlimit="10"/>
<path d="M51.8433 191.75L44.4351 227.759" stroke="#A87244" stroke-width="1.44" stroke-miterlimit="10"/>
<path d="M41.7559 189.682L34.3477 225.684" stroke="#A87244" stroke-width="1.44" stroke-miterlimit="10"/>
<path d="M75.2641 231.071L24.8898 220.73" stroke="#A87244" stroke-width="1.44" stroke-miterlimit="10"/>
<path d="M77.3347 220.996L26.9605 210.656" stroke="#A87244" stroke-width="1.44" stroke-miterlimit="10"/>
<path d="M79.4054 210.921L29.0381 200.581" stroke="#A87244" stroke-width="1.44" stroke-miterlimit="10"/>
<path d="M81.483 200.839L31.1088 190.506" stroke="#A87244" stroke-width="1.44" stroke-miterlimit="10"/>
<g style="mix-blend-mode:multiply" opacity="0.39">
<path d="M75.1102 220.926L80.07 195.627L72.7527 194.23L69.1221 212.717C68.545 215.339 66.9825 217.639 64.7569 219.144C60.6786 222.037 54.5925 222.722 46.6667 221.171C46.5128 221.171 45.5054 220.996 43.9734 220.682C40.3218 219.934 33.7181 218.257 28.8632 215.239C28.9612 216.783 29.4947 218.268 30.4022 219.522C34.3687 225.111 44.9668 227.906 49.9895 228.919C51.5215 229.233 52.5358 229.387 52.6828 229.408C60.6086 230.959 66.6737 230.274 70.773 227.375C72.9925 225.86 74.545 223.551 75.1102 220.926Z" fill="#634329"/>
</g>
<path d="M79.1116 200.518L33.4173 191.121C32.6152 190.954 31.912 190.477 31.4621 189.793C31.0122 189.109 30.8524 188.275 31.0178 187.474C31.0987 187.077 31.2573 186.7 31.4843 186.364C31.7114 186.028 32.0025 185.74 32.341 185.517C32.6796 185.294 33.0589 185.139 33.4572 185.063C33.8555 184.986 34.2651 184.989 34.6625 185.07L80.3568 194.447C81.1592 194.613 81.863 195.09 82.314 195.774C82.765 196.457 82.9265 197.291 82.7632 198.094C82.6839 198.493 82.5263 198.872 82.2996 199.211C82.0729 199.549 81.7814 199.839 81.4421 200.064C81.1027 200.289 80.7221 200.445 80.3222 200.523C79.9222 200.601 79.5108 200.599 79.1116 200.518Z" fill="#A87244"/>
</g>
<defs>
<clipPath id="clip0_5_278">
<rect width="160" height="232" fill="white"/>
</clipPath>
</defs>
</svg>
