<svg width="12" height="12" viewBox="0 0 12 12" fill="none" xmlns="http://www.w3.org/2000/svg">
<path d="M10.75 2.00001H9.41665V3.00001C9.41665 3.09631 9.39768 3.19167 9.36083 3.28064C9.32398 3.36961 9.26996 3.45046 9.20186 3.51855C9.13377 3.58665 9.05292 3.64067 8.96395 3.67752C8.87498 3.71437 8.77962 3.73334 8.68332 3.73334C8.58701 3.73334 8.49165 3.71437 8.40268 3.67752C8.31371 3.64067 8.23287 3.58665 8.16477 3.51855C8.09668 3.45046 8.04266 3.36961 8.00581 3.28064C7.96895 3.19167 7.94998 3.09631 7.94998 3.00001V2.00001H4.06665V3.00001C4.06665 3.1945 3.98939 3.38103 3.85186 3.51855C3.71434 3.65608 3.52781 3.73334 3.33332 3.73334C3.13883 3.73334 2.9523 3.65608 2.81477 3.51855C2.67725 3.38103 2.59998 3.1945 2.59998 3.00001V2.00001H1.26665C1.18733 1.99911 1.10862 2.01412 1.0352 2.04416C0.96178 2.0742 0.895128 2.11867 0.839188 2.17492C0.783249 2.23117 0.739157 2.29806 0.709522 2.37165C0.679886 2.44524 0.665308 2.52402 0.666651 2.60334V10.0633C0.665326 10.1413 0.679365 10.2187 0.707966 10.2912C0.736566 10.3637 0.779168 10.4298 0.833338 10.4858C0.887507 10.5419 0.952184 10.5867 1.02367 10.6177C1.09516 10.6487 1.17206 10.6654 1.24998 10.6667H10.75C10.8279 10.6654 10.9048 10.6487 10.9763 10.6177C11.0478 10.5867 11.1125 10.5419 11.1666 10.4858C11.2208 10.4298 11.2634 10.3637 11.292 10.2912C11.3206 10.2187 11.3346 10.1413 11.3333 10.0633V2.60334C11.3346 2.52542 11.3206 2.448 11.292 2.37551C11.2634 2.30301 11.2208 2.23686 11.1666 2.18084C11.1125 2.12481 11.0478 2.08 10.9763 2.04898C10.9048 2.01795 10.8279 2.00131 10.75 2.00001ZM3.33332 8.66667H2.66665V8.00001H3.33332V8.66667ZM3.33332 7.00001H2.66665V6.33334H3.33332V7.00001ZM3.33332 5.33334H2.66665V4.66667H3.33332V5.33334ZM5.33332 8.66667H4.66665V8.00001H5.33332V8.66667ZM5.33332 7.00001H4.66665V6.33334H5.33332V7.00001ZM5.33332 5.33334H4.66665V4.66667H5.33332V5.33334ZM7.33332 8.66667H6.66665V8.00001H7.33332V8.66667ZM7.33332 7.00001H6.66665V6.33334H7.33332V7.00001ZM7.33332 5.33334H6.66665V4.66667H7.33332V5.33334ZM9.33332 8.66667H8.66665V8.00001H9.33332V8.66667ZM9.33332 7.00001H8.66665V6.33334H9.33332V7.00001ZM9.33332 5.33334H8.66665V4.66667H9.33332V5.33334Z" fill="#0F222B"/>
<path d="M3.33333 3.33334C3.42174 3.33334 3.50652 3.29822 3.56904 3.23571C3.63155 3.1732 3.66667 3.08841 3.66667 3.00001V1.00001C3.66667 0.9116 3.63155 0.826815 3.56904 0.764303C3.50652 0.701791 3.42174 0.666672 3.33333 0.666672C3.24493 0.666672 3.16014 0.701791 3.09763 0.764303C3.03512 0.826815 3 0.9116 3 1.00001V3.00001C3 3.08841 3.03512 3.1732 3.09763 3.23571C3.16014 3.29822 3.24493 3.33334 3.33333 3.33334Z" fill="#0F222B"/>
<path d="M8.66665 3.33334C8.75505 3.33334 8.83984 3.29822 8.90235 3.23571C8.96486 3.1732 8.99998 3.08841 8.99998 3.00001V1.00001C8.99998 0.9116 8.96486 0.826815 8.90235 0.764303C8.83984 0.701791 8.75505 0.666672 8.66665 0.666672C8.57824 0.666672 8.49346 0.701791 8.43094 0.764303C8.36843 0.826815 8.33331 0.9116 8.33331 1.00001V3.00001C8.33331 3.08841 8.36843 3.1732 8.43094 3.23571C8.49346 3.29822 8.57824 3.33334 8.66665 3.33334Z" fill="#0F222B"/>
</svg>
