<svg width="147" height="34" viewBox="0 0 147 34" fill="none" xmlns="http://www.w3.org/2000/svg">
<g filter="url(#filter0_d_3_15)">
<g clip-path="url(#clip0_3_15)">
<path d="M21.4113 12.4228C21.5832 12.658 21.7263 12.8982 21.8019 13.146H20.7366C20.2655 13.5496 19.8612 13.6712 19.444 13.6712C19.0283 13.6712 18.6161 13.5482 18.1399 13.146H15.3368V10.0031C15.5439 10.0124 15.7411 10.044 15.9438 10.0628C15.2195 8.75149 14.2988 6.83165 14.0097 5.5779C13.9996 5.53471 13.996 5.49157 13.9867 5.44843C9.75496 5.82094 6.42453 9.37972 6.42453 13.7057C6.42453 18.279 10.1455 22 14.7196 22C19.293 22 23.0132 18.279 23.0132 13.7057C23.0132 13.7057 23.0132 13.7057 23.0132 13.7053C23.0132 13.7053 23.0132 13.705 23.0132 13.7046C23.0132 12.6893 22.8203 11.72 22.4853 10.8201C22.0817 11.4978 21.7292 12.021 21.4113 12.4228ZM11.6762 7.2172C11.2144 7.85057 10.8267 8.6292 10.5296 9.51536C9.64277 9.8128 8.86374 10.2012 8.23011 10.6637C8.94209 9.15136 10.1642 7.92923 11.6762 7.2172ZM10.1707 10.8554C10.0211 11.5754 9.92762 12.3426 9.89743 13.146H7.63948C7.91715 12.2394 8.84574 11.4283 10.1707 10.8554ZM7.63948 14.2653H9.89743C9.92762 15.0684 10.0211 15.8355 10.1707 16.5556C8.8464 15.9826 7.91781 15.172 7.63948 14.2653ZM8.23006 16.7472C8.86303 17.2101 9.64273 17.5985 10.5289 17.8959C10.8267 18.7821 11.2144 19.5608 11.6762 20.1941C10.1642 19.482 8.94209 18.2599 8.23006 16.7472ZM14.2175 20.8038C13.2874 20.5487 12.4545 19.6076 11.8697 18.2549C12.607 18.4081 13.3932 18.502 14.2175 18.5294V20.8038ZM14.2175 17.4108C13.2249 17.373 12.2812 17.2274 11.4324 16.9932C11.2022 16.1603 11.0569 15.2367 11.0158 14.2652H14.2175V17.4108H14.2175ZM14.2175 13.146H11.0158C11.0569 12.1742 11.2022 11.2507 11.4325 10.4177C12.2813 10.1836 13.2249 10.038 14.2176 10.0002V13.146H14.2175ZM14.2175 8.88168C13.3932 8.9093 12.607 9.00322 11.8697 9.15606C12.4545 7.80374 13.2882 6.86251 14.2175 6.60755V8.88168ZM15.3368 14.2653H18.4233C18.3823 15.2385 18.2362 16.1639 18.0061 16.9979C17.1796 17.2252 16.2784 17.3655 15.3368 17.4079V14.2653ZM15.3368 20.8038V18.5268C16.1086 18.4944 16.8581 18.4009 17.5709 18.2521C17.0098 19.55 16.2208 20.5042 15.3368 20.8038ZM17.763 20.1938C18.2262 19.5587 18.6153 18.7775 18.9124 17.8885C19.4663 17.7018 19.9885 17.4813 20.4597 17.2205C20.7352 17.0681 20.9819 16.9033 21.2149 16.7329C20.5043 18.2521 19.28 19.4792 17.763 20.1938ZM19.918 16.2412C19.7122 16.3548 19.4936 16.4584 19.2685 16.5566C19.4181 15.8362 19.5115 15.0691 19.5418 14.2652H21.8011C21.5789 14.9918 20.9344 15.6791 19.918 16.2412Z" fill="#0F222B"/>
<path d="M19.444 0C16.4948 0 14.821 2.54315 15.4447 5.24663C15.8892 7.17184 18.5722 12.198 19.444 12.198C20.259 12.198 22.9923 7.17038 23.4433 5.24663C24.072 2.56971 22.4118 0 19.444 0ZM19.4907 5.18048C18.6262 5.18048 17.9256 4.47984 17.9256 3.61523C17.9256 2.75062 18.6262 2.05003 19.4907 2.05003C20.3554 2.05003 21.0559 2.75062 21.0559 3.61523C21.0559 4.47984 20.3554 5.18048 19.4907 5.18048Z" fill="#F14D24"/>
</g>
<path d="M38.046 14.574C38.718 14.694 39.288 15.048 39.756 15.636C40.224 16.224 40.458 16.89 40.458 17.634C40.458 18.27 40.29 18.846 39.954 19.362C39.63 19.866 39.156 20.268 38.532 20.568C37.908 20.856 37.182 21 36.354 21H31.35V8.49H36.12C36.972 8.49 37.704 8.634 38.316 8.922C38.928 9.21 39.39 9.6 39.702 10.092C40.014 10.572 40.17 11.112 40.17 11.712C40.17 12.432 39.978 13.032 39.594 13.512C39.21 13.992 38.694 14.346 38.046 14.574ZM33.402 13.746H35.94C36.612 13.746 37.134 13.596 37.506 13.296C37.89 12.984 38.082 12.54 38.082 11.964C38.082 11.4 37.89 10.962 37.506 10.65C37.134 10.326 36.612 10.164 35.94 10.164H33.402V13.746ZM36.174 19.326C36.87 19.326 37.416 19.158 37.812 18.822C38.208 18.486 38.406 18.018 38.406 17.418C38.406 16.806 38.196 16.32 37.776 15.96C37.356 15.6 36.798 15.42 36.102 15.42H33.402V19.326H36.174ZM42.0039 15.996C42.0039 15 42.2079 14.118 42.6159 13.35C43.0359 12.582 43.5999 11.988 44.3079 11.568C45.0279 11.136 45.8199 10.92 46.6839 10.92C47.4639 10.92 48.1419 11.076 48.7179 11.388C49.3059 11.688 49.7739 12.066 50.1219 12.522V11.082H52.1919V21H50.1219V19.524C49.7739 19.992 49.2999 20.382 48.6999 20.694C48.0999 21.006 47.4159 21.162 46.6479 21.162C45.7959 21.162 45.0159 20.946 44.3079 20.514C43.5999 20.07 43.0359 19.458 42.6159 18.678C42.2079 17.886 42.0039 16.992 42.0039 15.996ZM50.1219 16.032C50.1219 15.348 49.9779 14.754 49.6899 14.25C49.4139 13.746 49.0479 13.362 48.5919 13.098C48.1359 12.834 47.6439 12.702 47.1159 12.702C46.5879 12.702 46.0959 12.834 45.6399 13.098C45.1839 13.35 44.8119 13.728 44.5239 14.232C44.2479 14.724 44.1099 15.312 44.1099 15.996C44.1099 16.68 44.2479 17.28 44.5239 17.796C44.8119 18.312 45.1839 18.708 45.6399 18.984C46.1079 19.248 46.5999 19.38 47.1159 19.38C47.6439 19.38 48.1359 19.248 48.5919 18.984C49.0479 18.72 49.4139 18.336 49.6899 17.832C49.9779 17.316 50.1219 16.716 50.1219 16.032ZM59.8911 10.92C60.6711 10.92 61.3671 11.082 61.9791 11.406C62.6031 11.73 63.0891 12.21 63.4371 12.846C63.7851 13.482 63.9591 14.25 63.9591 15.15V21H61.9251V15.456C61.9251 14.568 61.7031 13.89 61.2591 13.422C60.8151 12.942 60.2091 12.702 59.4411 12.702C58.6731 12.702 58.0611 12.942 57.6051 13.422C57.1611 13.89 56.9391 14.568 56.9391 15.456V21H54.8871V11.082H56.9391V12.216C57.2751 11.808 57.7011 11.49 58.2171 11.262C58.7451 11.034 59.3031 10.92 59.8911 10.92ZM70.5726 10.92C71.3406 10.92 72.0186 11.076 72.6066 11.388C73.2066 11.688 73.6746 12.066 74.0106 12.522V11.082H76.0806V21.162C76.0806 22.074 75.8886 22.884 75.5046 23.592C75.1206 24.312 74.5626 24.876 73.8306 25.284C73.1106 25.692 72.2466 25.896 71.2386 25.896C69.8946 25.896 68.7786 25.578 67.8906 24.942C67.0026 24.318 66.4986 23.466 66.3786 22.386H68.4126C68.5686 22.902 68.8986 23.316 69.4026 23.628C69.9186 23.952 70.5306 24.114 71.2386 24.114C72.0666 24.114 72.7326 23.862 73.2366 23.358C73.7526 22.854 74.0106 22.122 74.0106 21.162V19.506C73.6626 19.974 73.1886 20.37 72.5886 20.694C72.0006 21.006 71.3286 21.162 70.5726 21.162C69.7086 21.162 68.9166 20.946 68.1966 20.514C67.4886 20.07 66.9246 19.458 66.5046 18.678C66.0966 17.886 65.8926 16.992 65.8926 15.996C65.8926 15 66.0966 14.118 66.5046 13.35C66.9246 12.582 67.4886 11.988 68.1966 11.568C68.9166 11.136 69.7086 10.92 70.5726 10.92ZM74.0106 16.032C74.0106 15.348 73.8666 14.754 73.5786 14.25C73.3026 13.746 72.9366 13.362 72.4806 13.098C72.0246 12.834 71.5326 12.702 71.0046 12.702C70.4766 12.702 69.9846 12.834 69.5286 13.098C69.0726 13.35 68.7006 13.728 68.4126 14.232C68.1366 14.724 67.9986 15.312 67.9986 15.996C67.9986 16.68 68.1366 17.28 68.4126 17.796C68.7006 18.312 69.0726 18.708 69.5286 18.984C69.9966 19.248 70.4886 19.38 71.0046 19.38C71.5326 19.38 72.0246 19.248 72.4806 18.984C72.9366 18.72 73.3026 18.336 73.5786 17.832C73.8666 17.316 74.0106 16.716 74.0106 16.032ZM80.8278 7.68V21H78.7758V7.68H80.8278ZM82.8379 15.996C82.8379 15 83.0419 14.118 83.4499 13.35C83.8699 12.582 84.4339 11.988 85.1419 11.568C85.8619 11.136 86.6539 10.92 87.5179 10.92C88.2979 10.92 88.9759 11.076 89.5519 11.388C90.1399 11.688 90.6079 12.066 90.9559 12.522V11.082H93.0259V21H90.9559V19.524C90.6079 19.992 90.1339 20.382 89.5339 20.694C88.9339 21.006 88.2499 21.162 87.4819 21.162C86.6299 21.162 85.8499 20.946 85.1419 20.514C84.4339 20.07 83.8699 19.458 83.4499 18.678C83.0419 17.886 82.8379 16.992 82.8379 15.996ZM90.9559 16.032C90.9559 15.348 90.8119 14.754 90.5239 14.25C90.2479 13.746 89.8819 13.362 89.4259 13.098C88.9699 12.834 88.4779 12.702 87.9499 12.702C87.4219 12.702 86.9299 12.834 86.4739 13.098C86.0179 13.35 85.6459 13.728 85.3579 14.232C85.0819 14.724 84.9439 15.312 84.9439 15.996C84.9439 16.68 85.0819 17.28 85.3579 17.796C85.6459 18.312 86.0179 18.708 86.4739 18.984C86.9419 19.248 87.4339 19.38 87.9499 19.38C88.4779 19.38 88.9699 19.248 89.4259 18.984C89.8819 18.72 90.2479 18.336 90.5239 17.832C90.8119 17.316 90.9559 16.716 90.9559 16.032ZM95.0371 15.996C95.0371 15 95.2411 14.118 95.6491 13.35C96.0691 12.582 96.6331 11.988 97.3411 11.568C98.0611 11.136 98.8591 10.92 99.7351 10.92C100.383 10.92 101.019 11.064 101.643 11.352C102.279 11.628 102.783 12 103.155 12.468V7.68H105.225V21H103.155V19.506C102.819 19.986 102.351 20.382 101.751 20.694C101.163 21.006 100.485 21.162 99.7171 21.162C98.8531 21.162 98.0611 20.946 97.3411 20.514C96.6331 20.07 96.0691 19.458 95.6491 18.678C95.2411 17.886 95.0371 16.992 95.0371 15.996ZM103.155 16.032C103.155 15.348 103.011 14.754 102.723 14.25C102.447 13.746 102.081 13.362 101.625 13.098C101.169 12.834 100.677 12.702 100.149 12.702C99.6211 12.702 99.1291 12.834 98.6731 13.098C98.2171 13.35 97.8451 13.728 97.5571 14.232C97.2811 14.724 97.1431 15.312 97.1431 15.996C97.1431 16.68 97.2811 17.28 97.5571 17.796C97.8451 18.312 98.2171 18.708 98.6731 18.984C99.1411 19.248 99.6331 19.38 100.149 19.38C100.677 19.38 101.169 19.248 101.625 18.984C102.081 18.72 102.447 18.336 102.723 17.832C103.011 17.316 103.155 16.716 103.155 16.032ZM117.01 15.798C117.01 16.17 116.986 16.506 116.938 16.806H109.36C109.42 17.598 109.714 18.234 110.242 18.714C110.77 19.194 111.418 19.434 112.186 19.434C113.29 19.434 114.07 18.972 114.526 18.048H116.74C116.44 18.96 115.894 19.71 115.102 20.298C114.322 20.874 113.35 21.162 112.186 21.162C111.238 21.162 110.386 20.952 109.63 20.532C108.886 20.1 108.298 19.5 107.866 18.732C107.446 17.952 107.236 17.052 107.236 16.032C107.236 15.012 107.44 14.118 107.848 13.35C108.268 12.57 108.85 11.97 109.594 11.55C110.35 11.13 111.214 10.92 112.186 10.92C113.122 10.92 113.956 11.124 114.688 11.532C115.42 11.94 115.99 12.516 116.398 13.26C116.806 13.992 117.01 14.838 117.01 15.798ZM114.868 15.15C114.856 14.394 114.586 13.788 114.058 13.332C113.53 12.876 112.876 12.648 112.096 12.648C111.388 12.648 110.782 12.876 110.278 13.332C109.774 13.776 109.474 14.382 109.378 15.15H114.868ZM122.63 21.162C121.85 21.162 121.148 21.024 120.524 20.748C119.912 20.46 119.426 20.076 119.066 19.596C118.706 19.104 118.514 18.558 118.49 17.958H120.614C120.65 18.378 120.848 18.732 121.208 19.02C121.58 19.296 122.042 19.434 122.594 19.434C123.17 19.434 123.614 19.326 123.926 19.11C124.25 18.882 124.412 18.594 124.412 18.246C124.412 17.874 124.232 17.598 123.872 17.418C123.524 17.238 122.966 17.04 122.198 16.824C121.454 16.62 120.848 16.422 120.38 16.23C119.912 16.038 119.504 15.744 119.156 15.348C118.82 14.952 118.652 14.43 118.652 13.782C118.652 13.254 118.808 12.774 119.12 12.342C119.432 11.898 119.876 11.55 120.452 11.298C121.04 11.046 121.712 10.92 122.468 10.92C123.596 10.92 124.502 11.208 125.186 11.784C125.882 12.348 126.254 13.122 126.302 14.106H124.25C124.214 13.662 124.034 13.308 123.71 13.044C123.386 12.78 122.948 12.648 122.396 12.648C121.856 12.648 121.442 12.75 121.154 12.954C120.866 13.158 120.722 13.428 120.722 13.764C120.722 14.028 120.818 14.25 121.01 14.43C121.202 14.61 121.436 14.754 121.712 14.862C121.988 14.958 122.396 15.084 122.936 15.24C123.656 15.432 124.244 15.63 124.7 15.834C125.168 16.026 125.57 16.314 125.906 16.698C126.242 17.082 126.416 17.592 126.428 18.228C126.428 18.792 126.272 19.296 125.96 19.74C125.648 20.184 125.204 20.532 124.628 20.784C124.064 21.036 123.398 21.162 122.63 21.162ZM133.775 10.92C134.531 10.92 135.203 11.082 135.791 11.406C136.391 11.73 136.859 12.21 137.195 12.846C137.543 13.482 137.717 14.25 137.717 15.15V21H135.683V15.456C135.683 14.568 135.461 13.89 135.017 13.422C134.573 12.942 133.967 12.702 133.199 12.702C132.431 12.702 131.819 12.942 131.363 13.422C130.919 13.89 130.697 14.568 130.697 15.456V21H128.645V7.68H130.697V12.234C131.045 11.814 131.483 11.49 132.011 11.262C132.551 11.034 133.139 10.92 133.775 10.92ZM141.162 21.126C140.79 21.126 140.478 21 140.226 20.748C139.974 20.496 139.848 20.184 139.848 19.812C139.848 19.44 139.974 19.128 140.226 18.876C140.478 18.624 140.79 18.498 141.162 18.498C141.522 18.498 141.828 18.624 142.08 18.876C142.332 19.128 142.458 19.44 142.458 19.812C142.458 20.184 142.332 20.496 142.08 20.748C141.828 21 141.522 21.126 141.162 21.126Z" fill="#0F222B"/>
</g>
<defs>
<filter id="filter0_d_3_15" x="0" y="0" width="146.458" height="33.896" filterUnits="userSpaceOnUse" color-interpolation-filters="sRGB">
<feFlood flood-opacity="0" result="BackgroundImageFix"/>
<feColorMatrix in="SourceAlpha" type="matrix" values="0 0 0 0 0 0 0 0 0 0 0 0 0 0 0 0 0 0 127 0" result="hardAlpha"/>
<feOffset dy="4"/>
<feGaussianBlur stdDeviation="2"/>
<feComposite in2="hardAlpha" operator="out"/>
<feColorMatrix type="matrix" values="0 0 0 0 0 0 0 0 0 0 0 0 0 0 0 0 0 0 0.25 0"/>
<feBlend mode="normal" in2="BackgroundImageFix" result="effect1_dropShadow_3_15"/>
<feBlend mode="normal" in="SourceGraphic" in2="effect1_dropShadow_3_15" result="shape"/>
</filter>
<clipPath id="clip0_3_15">
<rect width="22" height="22" fill="white" transform="translate(4)"/>
</clipPath>
</defs>
</svg>
