<svg width="30" height="30" viewBox="0 0 30 30" fill="none" xmlns="http://www.w3.org/2000/svg">
<path d="M15 0C10.1526 0 6.20901 3.94359 6.20901 8.79099C6.20901 10.1129 6.49536 11.3834 7.05987 12.568C7.07123 12.5933 7.08316 12.6182 7.09589 12.6431L13.7379 25.5035C13.9818 25.9755 14.4687 26.2721 14.9999 26.2721C15.5312 26.2721 16.0181 25.9756 16.2619 25.5035L22.9021 12.6466C22.9136 12.6245 22.9242 12.6021 22.9345 12.5795C23.5027 11.3915 23.7908 10.1172 23.7908 8.79099C23.791 3.94359 19.8474 0 15 0ZM15 13.3924C12.4628 13.3924 10.3986 11.3282 10.3986 8.79099C10.3986 6.25389 12.4628 4.18971 15 4.18971C17.5372 4.18971 19.6014 6.25389 19.6014 8.79099C19.6014 11.3282 17.5372 13.3924 15 13.3924Z" fill="#0F222B"/>
<path d="M18.3863 28.2955H11.6138C11.143 28.2955 10.7616 28.677 10.7616 29.1477C10.7616 29.6185 11.143 30 11.6138 30H18.3863C18.857 30 19.2385 29.6185 19.2385 29.1477C19.2385 28.677 18.8569 28.2955 18.3863 28.2955Z" fill="#0F222B"/>
</svg>
