<svg width="98" height="56" viewBox="0 0 98 56" fill="none" xmlns="http://www.w3.org/2000/svg">
<path d="M6.069 21.168C5.047 21.168 4.137 20.993 3.339 20.643C2.541 20.293 1.911 19.817 1.449 19.215C0.987 18.599 0.728 17.913 0.672 17.157H4.221C4.263 17.563 4.452 17.892 4.788 18.144C5.124 18.396 5.537 18.522 6.027 18.522C6.475 18.522 6.818 18.438 7.056 18.27C7.308 18.088 7.434 17.857 7.434 17.577C7.434 17.241 7.259 16.996 6.909 16.842C6.559 16.674 5.992 16.492 5.208 16.296C4.368 16.1 3.668 15.897 3.108 15.687C2.548 15.463 2.065 15.12 1.659 14.658C1.253 14.182 1.05 13.545 1.05 12.747C1.05 12.075 1.232 11.466 1.596 10.92C1.974 10.36 2.52 9.919 3.234 9.597C3.962 9.275 4.823 9.114 5.817 9.114C7.287 9.114 8.442 9.478 9.282 10.206C10.136 10.934 10.626 11.9 10.752 13.104H7.434C7.378 12.698 7.196 12.376 6.888 12.138C6.594 11.9 6.202 11.781 5.712 11.781C5.292 11.781 4.97 11.865 4.746 12.033C4.522 12.187 4.41 12.404 4.41 12.684C4.41 13.02 4.585 13.272 4.935 13.44C5.299 13.608 5.859 13.776 6.615 13.944C7.483 14.168 8.19 14.392 8.736 14.616C9.282 14.826 9.758 15.176 10.164 15.666C10.584 16.142 10.801 16.786 10.815 17.598C10.815 18.284 10.619 18.9 10.227 19.446C9.849 19.978 9.296 20.398 8.568 20.706C7.854 21.014 7.021 21.168 6.069 21.168ZM11.878 15.12C11.878 13.916 12.102 12.859 12.55 11.949C13.012 11.039 13.635 10.339 14.419 9.849C15.203 9.359 16.078 9.114 17.044 9.114C17.87 9.114 18.591 9.282 19.207 9.618C19.837 9.954 20.32 10.395 20.656 10.941V9.282H24.247V21H20.656V19.341C20.306 19.887 19.816 20.328 19.186 20.664C18.57 21 17.849 21.168 17.023 21.168C16.071 21.168 15.203 20.923 14.419 20.433C13.635 19.929 13.012 19.222 12.55 18.312C12.102 17.388 11.878 16.324 11.878 15.12ZM20.656 15.141C20.656 14.245 20.404 13.538 19.9 13.02C19.41 12.502 18.808 12.243 18.094 12.243C17.38 12.243 16.771 12.502 16.267 13.02C15.777 13.524 15.532 14.224 15.532 15.12C15.532 16.016 15.777 16.73 16.267 17.262C16.771 17.78 17.38 18.039 18.094 18.039C18.808 18.039 19.41 17.78 19.9 17.262C20.404 16.744 20.656 16.037 20.656 15.141ZM28.2099 8.064C27.5799 8.064 27.0619 7.882 26.6559 7.518C26.2639 7.14 26.0679 6.678 26.0679 6.132C26.0679 5.572 26.2639 5.11 26.6559 4.746C27.0619 4.368 27.5799 4.179 28.2099 4.179C28.8259 4.179 29.3299 4.368 29.7219 4.746C30.1279 5.11 30.3309 5.572 30.3309 6.132C30.3309 6.678 30.1279 7.14 29.7219 7.518C29.3299 7.882 28.8259 8.064 28.2099 8.064ZM30.0159 22.512C30.0159 23.954 29.6519 24.99 28.9239 25.62C28.1959 26.264 27.1809 26.586 25.8789 26.586H24.4719V23.541H25.3329C25.7249 23.541 26.0049 23.464 26.1729 23.31C26.3409 23.156 26.4249 22.904 26.4249 22.554V9.282H30.0159V22.512ZM33.9837 8.064C33.3537 8.064 32.8357 7.882 32.4297 7.518C32.0377 7.14 31.8417 6.678 31.8417 6.132C31.8417 5.572 32.0377 5.11 32.4297 4.746C32.8357 4.368 33.3537 4.179 33.9837 4.179C34.5997 4.179 35.1037 4.368 35.4957 4.746C35.9017 5.11 36.1047 5.572 36.1047 6.132C36.1047 6.678 35.9017 7.14 35.4957 7.518C35.1037 7.882 34.5997 8.064 33.9837 8.064ZM35.7687 9.282V21H32.1777V9.282H35.7687ZM41.5421 10.941C41.8781 10.395 42.3611 9.954 42.9911 9.618C43.6211 9.282 44.3421 9.114 45.1541 9.114C46.1201 9.114 46.9951 9.359 47.7791 9.849C48.5631 10.339 49.1791 11.039 49.6271 11.949C50.0891 12.859 50.3201 13.916 50.3201 15.12C50.3201 16.324 50.0891 17.388 49.6271 18.312C49.1791 19.222 48.5631 19.929 47.7791 20.433C46.9951 20.923 46.1201 21.168 45.1541 21.168C44.3281 21.168 43.6071 21.007 42.9911 20.685C42.3751 20.349 41.8921 19.908 41.5421 19.362V21H37.9511V5.46H41.5421V10.941ZM46.6661 15.12C46.6661 14.224 46.4141 13.524 45.9101 13.02C45.4201 12.502 44.8111 12.243 44.0831 12.243C43.3691 12.243 42.7601 12.502 42.2561 13.02C41.7661 13.538 41.5211 14.245 41.5211 15.141C41.5211 16.037 41.7661 16.744 42.2561 17.262C42.7601 17.78 43.3691 18.039 44.0831 18.039C44.7971 18.039 45.4061 17.78 45.9101 17.262C46.4141 16.73 46.6661 16.016 46.6661 15.12ZM63.355 9.282V21H59.764V19.404C59.4 19.922 58.903 20.342 58.273 20.664C57.657 20.972 56.971 21.126 56.215 21.126C55.319 21.126 54.528 20.93 53.842 20.538C53.156 20.132 52.624 19.551 52.246 18.795C51.868 18.039 51.679 17.15 51.679 16.128V9.282H55.249V15.645C55.249 16.429 55.452 17.038 55.858 17.472C56.264 17.906 56.81 18.123 57.496 18.123C58.196 18.123 58.749 17.906 59.155 17.472C59.561 17.038 59.764 16.429 59.764 15.645V9.282H63.355ZM69.1054 11.235C69.5254 10.591 70.0504 10.087 70.6804 9.723C71.3104 9.345 72.0104 9.156 72.7804 9.156V12.957H71.7934C70.8974 12.957 70.2254 13.153 69.7774 13.545C69.3294 13.923 69.1054 14.595 69.1054 15.561V21H65.5144V9.282H69.1054V11.235ZM42.3408 49.168C41.3188 49.168 40.4088 48.993 39.6108 48.643C38.8128 48.293 38.1828 47.817 37.7208 47.215C37.2588 46.599 36.9998 45.913 36.9438 45.157H40.4928C40.5348 45.563 40.7238 45.892 41.0598 46.144C41.3958 46.396 41.8088 46.522 42.2988 46.522C42.7468 46.522 43.0898 46.438 43.3278 46.27C43.5798 46.088 43.7058 45.857 43.7058 45.577C43.7058 45.241 43.5308 44.996 43.1808 44.842C42.8308 44.674 42.2638 44.492 41.4798 44.296C40.6398 44.1 39.9398 43.897 39.3798 43.687C38.8198 43.463 38.3368 43.12 37.9308 42.658C37.5248 42.182 37.3218 41.545 37.3218 40.747C37.3218 40.075 37.5038 39.466 37.8678 38.92C38.2458 38.36 38.7918 37.919 39.5058 37.597C40.2338 37.275 41.0948 37.114 42.0888 37.114C43.5588 37.114 44.7138 37.478 45.5538 38.206C46.4078 38.934 46.8978 39.9 47.0238 41.104H43.7058C43.6498 40.698 43.4678 40.376 43.1598 40.138C42.8658 39.9 42.4738 39.781 41.9838 39.781C41.5638 39.781 41.2418 39.865 41.0178 40.033C40.7938 40.187 40.6818 40.404 40.6818 40.684C40.6818 41.02 40.8568 41.272 41.2068 41.44C41.5708 41.608 42.1308 41.776 42.8868 41.944C43.7548 42.168 44.4618 42.392 45.0078 42.616C45.5538 42.826 46.0298 43.176 46.4358 43.666C46.8558 44.142 47.0728 44.786 47.0868 45.598C47.0868 46.284 46.8908 46.9 46.4988 47.446C46.1208 47.978 45.5678 48.398 44.8398 48.706C44.1258 49.014 43.2928 49.168 42.3408 49.168ZM48.1497 43.12C48.1497 41.916 48.3737 40.859 48.8217 39.949C49.2837 39.039 49.9067 38.339 50.6907 37.849C51.4747 37.359 52.3497 37.114 53.3157 37.114C54.1417 37.114 54.8627 37.282 55.4787 37.618C56.1087 37.954 56.5917 38.395 56.9277 38.941V37.282H60.5187V49H56.9277V47.341C56.5777 47.887 56.0877 48.328 55.4577 48.664C54.8417 49 54.1207 49.168 53.2947 49.168C52.3427 49.168 51.4747 48.923 50.6907 48.433C49.9067 47.929 49.2837 47.222 48.8217 46.312C48.3737 45.388 48.1497 44.324 48.1497 43.12ZM56.9277 43.141C56.9277 42.245 56.6757 41.538 56.1717 41.02C55.6817 40.502 55.0797 40.243 54.3657 40.243C53.6517 40.243 53.0427 40.502 52.5387 41.02C52.0487 41.524 51.8037 42.224 51.8037 43.12C51.8037 44.016 52.0487 44.73 52.5387 45.262C53.0427 45.78 53.6517 46.039 54.3657 46.039C55.0797 46.039 55.6817 45.78 56.1717 45.262C56.6757 44.744 56.9277 44.037 56.9277 43.141ZM67.1486 37.114C67.9746 37.114 68.6956 37.282 69.3116 37.618C69.9416 37.954 70.4246 38.395 70.7606 38.941V37.282H74.3517V48.979C74.3517 50.057 74.1347 51.03 73.7007 51.898C73.2807 52.78 72.6297 53.48 71.7477 53.998C70.8797 54.516 69.7947 54.775 68.4927 54.775C66.7566 54.775 65.3496 54.362 64.2716 53.536C63.1936 52.724 62.5776 51.618 62.4236 50.218H65.9726C66.0846 50.666 66.3506 51.016 66.7706 51.268C67.1906 51.534 67.7086 51.667 68.3246 51.667C69.0666 51.667 69.6546 51.45 70.0887 51.016C70.5366 50.596 70.7606 49.917 70.7606 48.979V47.32C70.4107 47.866 69.9277 48.314 69.3116 48.664C68.6956 49 67.9746 49.168 67.1486 49.168C66.1826 49.168 65.3076 48.923 64.5236 48.433C63.7396 47.929 63.1166 47.222 62.6546 46.312C62.2066 45.388 61.9826 44.324 61.9826 43.12C61.9826 41.916 62.2066 40.859 62.6546 39.949C63.1166 39.039 63.7396 38.339 64.5236 37.849C65.3076 37.359 66.1826 37.114 67.1486 37.114ZM70.7606 43.141C70.7606 42.245 70.5086 41.538 70.0047 41.02C69.5147 40.502 68.9126 40.243 68.1986 40.243C67.4846 40.243 66.8756 40.502 66.3716 41.02C65.8816 41.524 65.6366 42.224 65.6366 43.12C65.6366 44.016 65.8816 44.73 66.3716 45.262C66.8756 45.78 67.4846 46.039 68.1986 46.039C68.9126 46.039 69.5147 45.78 70.0047 45.262C70.5086 44.744 70.7606 44.037 70.7606 43.141ZM81.8636 49.168C80.7156 49.168 79.6796 48.923 78.7556 48.433C77.8456 47.943 77.1246 47.243 76.5926 46.333C76.0746 45.423 75.8156 44.359 75.8156 43.141C75.8156 41.937 76.0816 40.88 76.6136 39.97C77.1456 39.046 77.8736 38.339 78.7976 37.849C79.7216 37.359 80.7576 37.114 81.9056 37.114C83.0536 37.114 84.0896 37.359 85.0136 37.849C85.9376 38.339 86.6656 39.046 87.1976 39.97C87.7296 40.88 87.9956 41.937 87.9956 43.141C87.9956 44.345 87.7226 45.409 87.1766 46.333C86.6446 47.243 85.9096 47.943 84.9716 48.433C84.0476 48.923 83.0116 49.168 81.8636 49.168ZM81.8636 46.06C82.5496 46.06 83.1306 45.808 83.6066 45.304C84.0966 44.8 84.3416 44.079 84.3416 43.141C84.3416 42.203 84.1036 41.482 83.6276 40.978C83.1656 40.474 82.5916 40.222 81.9056 40.222C81.2056 40.222 80.6246 40.474 80.1626 40.978C79.7006 41.468 79.4696 42.189 79.4696 43.141C79.4696 44.079 79.6936 44.8 80.1416 45.304C80.6036 45.808 81.1776 46.06 81.8636 46.06ZM93.0717 39.235C93.4917 38.591 94.0167 38.087 94.6467 37.723C95.2767 37.345 95.9767 37.156 96.7467 37.156V40.957H95.7597C94.8637 40.957 94.1917 41.153 93.7437 41.545C93.2957 41.923 93.0717 42.595 93.0717 43.561V49H89.4807V37.282H93.0717V39.235Z" fill="#0F222B"/>
</svg>
