<svg width="111" height="49" viewBox="0 0 111 49" fill="none" xmlns="http://www.w3.org/2000/svg">
<path d="M6.744 19.216C5.656 19.216 4.68 19.024 3.816 18.64C2.952 18.24 2.264 17.704 1.752 17.032C1.256 16.36 0.984 15.616 0.936 14.8H4.32C4.384 15.312 4.632 15.736 5.064 16.072C5.512 16.408 6.064 16.576 6.72 16.576C7.36 16.576 7.856 16.448 8.208 16.192C8.576 15.936 8.76 15.608 8.76 15.208C8.76 14.776 8.536 14.456 8.088 14.248C7.656 14.024 6.96 13.784 6 13.528C5.008 13.288 4.192 13.04 3.552 12.784C2.928 12.528 2.384 12.136 1.92 11.608C1.472 11.08 1.248 10.368 1.248 9.472C1.248 8.736 1.456 8.064 1.872 7.456C2.304 6.848 2.912 6.368 3.696 6.016C4.496 5.664 5.432 5.488 6.504 5.488C8.088 5.488 9.352 5.888 10.296 6.688C11.24 7.472 11.76 8.536 11.856 9.88H8.64C8.592 9.352 8.368 8.936 7.968 8.632C7.584 8.312 7.064 8.152 6.408 8.152C5.8 8.152 5.328 8.264 4.992 8.488C4.672 8.712 4.512 9.024 4.512 9.424C4.512 9.872 4.736 10.216 5.184 10.456C5.632 10.68 6.328 10.912 7.272 11.152C8.232 11.392 9.024 11.64 9.648 11.896C10.272 12.152 10.808 12.552 11.256 13.096C11.72 13.624 11.96 14.328 11.976 15.208C11.976 15.976 11.76 16.664 11.328 17.272C10.912 17.88 10.304 18.36 9.504 18.712C8.72 19.048 7.8 19.216 6.744 19.216ZM13.8701 12.304C13.8701 10.96 14.1341 9.768 14.6621 8.728C15.2061 7.688 15.9341 6.888 16.8461 6.328C17.7741 5.768 18.8061 5.488 19.9421 5.488C20.9341 5.488 21.7981 5.688 22.5341 6.088C23.2861 6.488 23.8861 6.992 24.3341 7.6V5.704H27.7181V19H24.3341V17.056C23.9021 17.68 23.3021 18.2 22.5341 18.616C21.7821 19.016 20.9101 19.216 19.9181 19.216C18.7981 19.216 17.7741 18.928 16.8461 18.352C15.9341 17.776 15.2061 16.968 14.6621 15.928C14.1341 14.872 13.8701 13.664 13.8701 12.304ZM24.3341 12.352C24.3341 11.536 24.1741 10.84 23.8541 10.264C23.5341 9.672 23.1021 9.224 22.5581 8.92C22.0141 8.6 21.4301 8.44 20.8061 8.44C20.1821 8.44 19.6061 8.592 19.0781 8.896C18.5501 9.2 18.1181 9.648 17.7821 10.24C17.4621 10.816 17.3021 11.504 17.3021 12.304C17.3021 13.104 17.4621 13.808 17.7821 14.416C18.1181 15.008 18.5501 15.464 19.0781 15.784C19.6221 16.104 20.1981 16.264 20.8061 16.264C21.4301 16.264 22.0141 16.112 22.5581 15.808C23.1021 15.488 23.5341 15.04 23.8541 14.464C24.1741 13.872 24.3341 13.168 24.3341 12.352ZM47.7191 7.648C48.1511 7.008 48.7431 6.488 49.4951 6.088C50.2631 5.688 51.1351 5.488 52.1111 5.488C53.2471 5.488 54.2711 5.768 55.1831 6.328C56.1111 6.888 56.8391 7.688 57.3671 8.728C57.9111 9.752 58.1831 10.944 58.1831 12.304C58.1831 13.664 57.9111 14.872 57.3671 15.928C56.8391 16.968 56.1111 17.776 55.1831 18.352C54.2711 18.928 53.2471 19.216 52.1111 19.216C51.1191 19.216 50.2471 19.024 49.4951 18.64C48.7591 18.24 48.1671 17.728 47.7191 17.104V19H44.3591V1.24H47.7191V7.648ZM54.7511 12.304C54.7511 11.504 54.5831 10.816 54.2471 10.24C53.9271 9.648 53.4951 9.2 52.9511 8.896C52.4231 8.592 51.8471 8.44 51.2231 8.44C50.6151 8.44 50.0391 8.6 49.4951 8.92C48.9671 9.224 48.5351 9.672 48.1991 10.264C47.8791 10.856 47.7191 11.552 47.7191 12.352C47.7191 13.152 47.8791 13.848 48.1991 14.44C48.5351 15.032 48.9671 15.488 49.4951 15.808C50.0391 16.112 50.6151 16.264 51.2231 16.264C51.8471 16.264 52.4231 16.104 52.9511 15.784C53.4951 15.464 53.9271 15.008 54.2471 14.416C54.5831 13.824 54.7511 13.12 54.7511 12.304ZM73.1768 5.704V19H69.7928V17.32C69.3608 17.896 68.7928 18.352 68.0888 18.688C67.4008 19.008 66.6488 19.168 65.8328 19.168C64.7928 19.168 63.8728 18.952 63.0728 18.52C62.2728 18.072 61.6408 17.424 61.1768 16.576C60.7288 15.712 60.5048 14.688 60.5048 13.504V5.704H63.8648V13.024C63.8648 14.08 64.1288 14.896 64.6568 15.472C65.1848 16.032 65.9048 16.312 66.8168 16.312C67.7448 16.312 68.4728 16.032 69.0008 15.472C69.5288 14.896 69.7928 14.08 69.7928 13.024V5.704H73.1768ZM79.8519 7.768C80.2839 7.064 80.8439 6.512 81.5319 6.112C82.2359 5.712 83.0359 5.512 83.9319 5.512V9.04H83.0439C81.9879 9.04 81.1879 9.288 80.6439 9.784C80.1159 10.28 79.8519 11.144 79.8519 12.376V19H76.4919V5.704H79.8519V7.768Z" fill="black"/>
<path d="M32.7038 4.12C32.0958 4.12 31.5918 3.936 31.1918 3.568C30.8078 3.184 30.6158 2.712 30.6158 2.152C30.6158 1.592 30.8078 1.128 31.1918 0.759999C31.5918 0.375999 32.0958 0.183999 32.7038 0.183999C33.2958 0.183999 33.7838 0.375999 34.1678 0.759999C34.5518 1.128 34.7438 1.592 34.7438 2.152C34.7438 2.712 34.5518 3.184 34.1678 3.568C33.7838 3.936 33.2958 4.12 32.7038 4.12ZM34.3598 21.184C34.3598 22.656 33.9918 23.712 33.2558 24.352C32.5358 25.008 31.4958 25.336 30.1357 25.336H28.6477V22.48H29.6078C30.1198 22.48 30.4798 22.376 30.6878 22.168C30.8958 21.976 30.9998 21.656 30.9998 21.208V5.704H34.3598V21.184ZM39.3834 4.12C38.7914 4.12 38.2954 3.936 37.8954 3.568C37.5114 3.184 37.3194 2.712 37.3194 2.152C37.3194 1.592 37.5114 1.128 37.8954 0.759999C38.2954 0.375999 38.7914 0.183999 39.3834 0.183999C39.9754 0.183999 40.4634 0.375999 40.8474 0.759999C41.2474 1.128 41.4474 1.592 41.4474 2.152C41.4474 2.712 41.2474 3.184 40.8474 3.568C40.4634 3.936 39.9754 4.12 39.3834 4.12ZM41.0394 5.704V19H37.6794V5.704H41.0394Z" fill="#FF3932"/>
<path d="M46.7753 42.216C45.6873 42.216 44.7113 42.024 43.8473 41.64C42.9833 41.24 42.2953 40.704 41.7833 40.032C41.2873 39.36 41.0153 38.616 40.9673 37.8H44.3513C44.4153 38.312 44.6633 38.736 45.0953 39.072C45.5433 39.408 46.0953 39.576 46.7513 39.576C47.3913 39.576 47.8873 39.448 48.2393 39.192C48.6073 38.936 48.7913 38.608 48.7913 38.208C48.7913 37.776 48.5673 37.456 48.1193 37.248C47.6873 37.024 46.9913 36.784 46.0312 36.528C45.0393 36.288 44.2233 36.04 43.5833 35.784C42.9593 35.528 42.4153 35.136 41.9513 34.608C41.5033 34.08 41.2793 33.368 41.2793 32.472C41.2793 31.736 41.4873 31.064 41.9033 30.456C42.3353 29.848 42.9433 29.368 43.7273 29.016C44.5273 28.664 45.4633 28.488 46.5353 28.488C48.1193 28.488 49.3833 28.888 50.3273 29.688C51.2713 30.472 51.7913 31.536 51.8873 32.88H48.6713C48.6233 32.352 48.3993 31.936 47.9993 31.632C47.6153 31.312 47.0953 31.152 46.4393 31.152C45.8313 31.152 45.3593 31.264 45.0233 31.488C44.7033 31.712 44.5433 32.024 44.5433 32.424C44.5433 32.872 44.7673 33.216 45.2153 33.456C45.6633 33.68 46.3593 33.912 47.3033 34.152C48.2633 34.392 49.0553 34.64 49.6793 34.896C50.3033 35.152 50.8393 35.552 51.2873 36.096C51.7513 36.624 51.9913 37.328 52.0073 38.208C52.0073 38.976 51.7913 39.664 51.3593 40.272C50.9433 40.88 50.3353 41.36 49.5353 41.712C48.7513 42.048 47.8313 42.216 46.7753 42.216ZM53.9014 35.304C53.9014 33.96 54.1654 32.768 54.6934 31.728C55.2374 30.688 55.9654 29.888 56.8774 29.328C57.8054 28.768 58.8374 28.488 59.9734 28.488C60.9654 28.488 61.8294 28.688 62.5654 29.088C63.3174 29.488 63.9174 29.992 64.3654 30.6V28.704H67.7494V42H64.3654V40.056C63.9334 40.68 63.3334 41.2 62.5654 41.616C61.8134 42.016 60.9414 42.216 59.9494 42.216C58.8294 42.216 57.8054 41.928 56.8774 41.352C55.9654 40.776 55.2374 39.968 54.6934 38.928C54.1654 37.872 53.9014 36.664 53.9014 35.304ZM64.3654 35.352C64.3654 34.536 64.2054 33.84 63.8854 33.264C63.5654 32.672 63.1334 32.224 62.5894 31.92C62.0454 31.6 61.4614 31.44 60.8374 31.44C60.2134 31.44 59.6374 31.592 59.1094 31.896C58.5814 32.2 58.1494 32.648 57.8134 33.24C57.4934 33.816 57.3334 34.504 57.3334 35.304C57.3334 36.104 57.4934 36.808 57.8134 37.416C58.1494 38.008 58.5814 38.464 59.1094 38.784C59.6534 39.104 60.2294 39.264 60.8374 39.264C61.4614 39.264 62.0454 39.112 62.5894 38.808C63.1334 38.488 63.5654 38.04 63.8854 37.464C64.2054 36.872 64.3654 36.168 64.3654 35.352ZM76.239 28.488C77.231 28.488 78.103 28.688 78.855 29.088C79.607 29.472 80.199 29.976 80.631 30.6V28.704H84.015V42.096C84.015 43.328 83.767 44.424 83.271 45.384C82.775 46.36 82.031 47.128 81.039 47.688C80.047 48.264 78.847 48.552 77.439 48.552C75.551 48.552 73.999 48.112 72.783 47.232C71.583 46.352 70.903 45.152 70.743 43.632H74.079C74.255 44.24 74.631 44.72 75.207 45.072C75.799 45.44 76.511 45.624 77.343 45.624C78.319 45.624 79.111 45.328 79.719 44.736C80.327 44.16 80.631 43.28 80.631 42.096V40.032C80.199 40.656 79.599 41.176 78.831 41.592C78.079 42.008 77.215 42.216 76.239 42.216C75.119 42.216 74.095 41.928 73.167 41.352C72.239 40.776 71.503 39.968 70.959 38.928C70.431 37.872 70.167 36.664 70.167 35.304C70.167 33.96 70.431 32.768 70.959 31.728C71.503 30.688 72.231 29.888 73.143 29.328C74.071 28.768 75.103 28.488 76.239 28.488ZM80.631 35.352C80.631 34.536 80.471 33.84 80.151 33.264C79.831 32.672 79.399 32.224 78.855 31.92C78.311 31.6 77.727 31.44 77.103 31.44C76.479 31.44 75.903 31.592 75.375 31.896C74.847 32.2 74.415 32.648 74.079 33.24C73.759 33.816 73.599 34.504 73.599 35.304C73.599 36.104 73.759 36.808 74.079 37.416C74.415 38.008 74.847 38.464 75.375 38.784C75.919 39.104 76.495 39.264 77.103 39.264C77.727 39.264 78.311 39.112 78.855 38.808C79.399 38.488 79.831 38.04 80.151 37.464C80.471 36.872 80.631 36.168 80.631 35.352ZM93.2006 42.216C91.9206 42.216 90.7686 41.936 89.7446 41.376C88.7206 40.8 87.9126 39.992 87.3206 38.952C86.7446 37.912 86.4566 36.712 86.4566 35.352C86.4566 33.992 86.7526 32.792 87.3446 31.752C87.9526 30.712 88.7766 29.912 89.8166 29.352C90.8566 28.776 92.0166 28.488 93.2966 28.488C94.5766 28.488 95.7366 28.776 96.7766 29.352C97.8166 29.912 98.6326 30.712 99.2246 31.752C99.8326 32.792 100.137 33.992 100.137 35.352C100.137 36.712 99.8246 37.912 99.2006 38.952C98.5926 39.992 97.7606 40.8 96.7046 41.376C95.6646 41.936 94.4966 42.216 93.2006 42.216ZM93.2006 39.288C93.8086 39.288 94.3766 39.144 94.9046 38.856C95.4486 38.552 95.8806 38.104 96.2006 37.512C96.5206 36.92 96.6806 36.2 96.6806 35.352C96.6806 34.088 96.3446 33.12 95.6726 32.448C95.0166 31.76 94.2086 31.416 93.2486 31.416C92.2886 31.416 91.4806 31.76 90.8246 32.448C90.1846 33.12 89.8646 34.088 89.8646 35.352C89.8646 36.616 90.1766 37.592 90.8006 38.28C91.4406 38.952 92.2406 39.288 93.2006 39.288ZM105.961 30.768C106.393 30.064 106.953 29.512 107.641 29.112C108.345 28.712 109.145 28.512 110.041 28.512V32.04H109.153C108.097 32.04 107.297 32.288 106.753 32.784C106.225 33.28 105.961 34.144 105.961 35.376V42H102.601V28.704H105.961V30.768Z" fill="#0F222B"/>
</svg>
