<svg width="10" height="12" viewBox="0 0 10 12" fill="none" xmlns="http://www.w3.org/2000/svg">
<path d="M8.49702 6.77609C8.59079 6.90437 8.66889 7.03542 8.71013 7.17057H8.12903C7.87208 7.39071 7.65155 7.457 7.42398 7.457C7.19724 7.457 6.9724 7.38994 6.71264 7.17057H5.18369V5.45623C5.29667 5.46133 5.40422 5.47858 5.5148 5.48878C5.1197 4.77355 4.6175 3.72636 4.4598 3.0425C4.45429 3.01894 4.45233 2.99541 4.44725 2.97188C2.13905 3.17507 0.322449 5.11622 0.322449 7.47584C0.322449 9.97038 2.35208 12 4.84702 12C7.3416 12 9.3708 9.97038 9.3708 7.47584C9.3708 7.47584 9.3708 7.47584 9.3708 7.47563C9.3708 7.47563 9.3708 7.47546 9.3708 7.47524C9.3708 6.92145 9.26561 6.39274 9.08286 5.90191C8.86274 6.27152 8.67046 6.55694 8.49702 6.77609ZM3.18698 3.93666C2.93513 4.28214 2.72362 4.70685 2.5616 5.19021C2.07785 5.35245 1.65293 5.56432 1.30731 5.81655C1.69567 4.99166 2.36228 4.32504 3.18698 3.93666ZM2.36579 5.92114C2.28423 6.31387 2.23323 6.73231 2.21676 7.17054H0.985149C1.1366 6.67603 1.64311 6.23364 2.36579 5.92114ZM0.985149 7.78107H2.21676C2.23323 8.21913 2.28423 8.63758 2.36579 9.03031C1.64347 8.7178 1.13697 8.27563 0.985149 7.78107ZM1.30728 9.13487C1.65254 9.38735 2.07783 9.59919 2.56119 9.76144C2.72362 10.2448 2.93513 10.6696 3.18698 11.015C2.36228 10.6266 1.69567 9.95998 1.30728 9.13487ZM4.57319 11.3475C4.06583 11.2084 3.61152 10.695 3.29253 9.95725C3.6947 10.0408 4.12352 10.092 4.57319 10.1069V11.3475ZM4.57319 9.49681C4.03173 9.47621 3.517 9.39676 3.05403 9.26905C2.92843 8.81472 2.84917 8.31092 2.82678 7.78105H4.57316V9.49681H4.57319ZM4.57319 7.17057H2.8268C2.8492 6.6405 2.92843 6.13676 3.05405 5.68242C3.51703 5.55472 4.03176 5.47526 4.57321 5.45466V7.17057H4.57319ZM4.57319 4.84456C4.12352 4.85963 3.6947 4.91086 3.29253 4.99423C3.61152 4.2566 4.06627 3.7432 4.57319 3.60413V4.84456ZM5.18367 7.78107H6.86722C6.84487 8.31191 6.7652 8.81668 6.63965 9.27162C6.18884 9.39557 5.69726 9.47212 5.18367 9.49524V7.78107ZM5.18367 11.3475V10.1055C5.60465 10.0879 6.01347 10.0369 6.40229 9.9557C6.09626 10.6637 5.66584 11.1841 5.18367 11.3475ZM6.50706 11.0148C6.75973 10.6684 6.97197 10.2423 7.13404 9.75735C7.43612 9.65552 7.72099 9.53527 7.97801 9.39303C8.12826 9.30986 8.26283 9.22 8.3899 9.12703C8.0023 9.9557 7.33452 10.625 6.50706 11.0148ZM7.68251 8.85883C7.57028 8.92082 7.45105 8.97734 7.32823 9.03089C7.40986 8.63794 7.46082 8.21952 7.47734 7.78105H8.70967C8.58845 8.17736 8.2369 8.55225 7.68251 8.85883Z" fill="#0F222B"/>
<path d="M7.42395 0C5.81533 0 4.90232 1.38717 5.24255 2.8618C5.48499 3.91191 6.94842 6.65344 7.42395 6.65344C7.86851 6.65344 9.35942 3.91112 9.60539 2.8618C9.94835 1.40166 9.04277 0 7.42395 0ZM7.44944 2.82571C6.97788 2.82571 6.59574 2.44355 6.59574 1.97194C6.59574 1.50034 6.97788 1.1182 7.44944 1.1182C7.92109 1.1182 8.30318 1.50034 8.30318 1.97194C8.30318 2.44355 7.92109 2.82571 7.44944 2.82571Z" fill="#0F222B"/>
</svg>
